<svg width="59" height="56" viewBox="0 0 59 56" fill="none" xmlns="http://www.w3.org/2000/svg">
<path d="M32.0833 37.9167H43.75V29.1667L58.3333 42.2917L43.75 55.4167V46.6667H32.0833V37.9167ZM52.5 0H5.83333C4.28624 0 2.80251 0.614581 1.70854 1.70854C0.614581 2.80251 0 4.28624 0 5.83333V40.8333C0 42.3804 0.614581 43.8642 1.70854 44.9581C2.80251 46.0521 4.28624 46.6667 5.83333 46.6667H26.25V40.8333H5.83333V11.6667L29.1667 26.25L52.5 11.6667V29.1667H58.3333V5.83333C58.3333 4.28624 57.7187 2.80251 56.6248 1.70854C55.5308 0.614581 54.0471 0 52.5 0ZM29.1667 20.4167L5.83333 5.83333H52.5L29.1667 20.4167Z" fill="#5048E5"/>
</svg>
