<svg width="30" height="30" viewBox="0 0 30 30" fill="none" xmlns="http://www.w3.org/2000/svg">
<path d="M9.375 28.125C10.4105 28.125 11.25 27.2855 11.25 26.25C11.25 25.2145 10.4105 24.375 9.375 24.375C8.33947 24.375 7.5 25.2145 7.5 26.25C7.5 27.2855 8.33947 28.125 9.375 28.125Z" fill="#F9FAFB"/>
<path d="M22.5 28.125C23.5355 28.125 24.375 27.2855 24.375 26.25C24.375 25.2145 23.5355 24.375 22.5 24.375C21.4645 24.375 20.625 25.2145 20.625 26.25C20.625 27.2855 21.4645 28.125 22.5 28.125Z" fill="#F9FAFB"/>
<path d="M26.25 6.56251H5.45625L4.6875 2.62501C4.64367 2.41006 4.52585 2.21729 4.35455 2.08025C4.18326 1.94321 3.96932 1.87058 3.75 1.87501H0V3.75001H2.98125L6.5625 21.75C6.60633 21.965 6.72415 22.1577 6.89545 22.2948C7.06674 22.4318 7.28068 22.5044 7.5 22.5H24.375V20.625H8.26875L7.5 16.875H24.375C24.5917 16.8803 24.8036 16.8103 24.9745 16.677C25.1454 16.5437 25.2649 16.3552 25.3125 16.1438L27.1875 7.70626C27.2189 7.56716 27.2182 7.42272 27.1854 7.28394C27.1525 7.14517 27.0885 7.01571 26.9981 6.90542C26.9077 6.79513 26.7933 6.70691 26.6637 6.64749C26.534 6.58807 26.3926 6.559 26.25 6.56251ZM23.625 15H7.14375L5.83125 8.43751H25.0781L23.625 15Z" fill="#F9FAFB"/>
</svg>
