<svg width="30" height="30" viewBox="0 0 30 30" fill="none" xmlns="http://www.w3.org/2000/svg">
<path d="M20.625 28.125H18.75V23.4375C18.7485 22.1948 18.2542 21.0033 17.3754 20.1246C16.4967 19.2458 15.3052 18.7515 14.0625 18.75H8.4375C7.19475 18.7515 6.00334 19.2458 5.12458 20.1246C4.24583 21.0033 3.75149 22.1948 3.75 23.4375V28.125H1.875V23.4375C1.87699 21.6976 2.56903 20.0296 3.7993 18.7993C5.02958 17.569 6.69763 16.877 8.4375 16.875H14.0625C15.8024 16.877 17.4704 17.569 18.7007 18.7993C19.931 20.0296 20.623 21.6976 20.625 23.4375V28.125Z" fill="white"/>
<path d="M11.25 3.75C12.1771 3.75 13.0834 4.02492 13.8542 4.53999C14.6251 5.05506 15.2259 5.78714 15.5807 6.64367C15.9355 7.5002 16.0283 8.4427 15.8474 9.35199C15.6666 10.2613 15.2201 11.0965 14.5646 11.7521C13.909 12.4076 13.0738 12.8541 12.1645 13.0349C11.2552 13.2158 10.3127 13.123 9.45618 12.7682C8.59965 12.4134 7.86756 11.8126 7.35249 11.0417C6.83742 10.2709 6.5625 9.3646 6.5625 8.4375C6.5625 7.1943 7.05636 6.00201 7.93544 5.12294C8.81452 4.24386 10.0068 3.75 11.25 3.75ZM11.25 1.875C9.95206 1.875 8.68327 2.25988 7.60407 2.98098C6.52488 3.70208 5.68374 4.727 5.18704 5.92614C4.69034 7.12528 4.56038 8.44478 4.8136 9.71778C5.06682 10.9908 5.69183 12.1601 6.60961 13.0779C7.5274 13.9957 8.69672 14.6207 9.96972 14.8739C11.2427 15.1271 12.5622 14.9972 13.7614 14.5005C14.9605 14.0038 15.9854 13.1626 16.7065 12.0834C17.4276 11.0042 17.8125 9.73544 17.8125 8.4375C17.8125 6.69702 17.1211 5.02782 15.8904 3.79711C14.6597 2.5664 12.9905 1.875 11.25 1.875Z" fill="white"/>
<path d="M21.75 17.375L23.9802 21.575L28.75 22.1546L25.25 25.3088L25.95 29.975L21.75 27.35L17.55 29.975L18.25 25.3088L14.75 22.1546L19.65 21.575L21.75 17.375Z" fill="#FCE944"/>
</svg>
